<svg width="1099" height="1139" viewBox="0 0 1099 1139" fill="none" xmlns="http://www.w3.org/2000/svg">
<path opacity="0.6" d="M113.468 416.716C168.302 410.475 231.177 422.539 262.207 468.187C288.447 506.796 284.629 557.644 279.774 604.079C269.328 704.05 258.876 804.026 248.43 903.997C244.061 945.822 239.728 988.49 248.601 1029.59C257.475 1070.7 281.951 1110.73 320.55 1127.4C383.229 1154.46 454.459 1111.7 500.157 1060.97C528.24 1029.8 557.121 992.095 598.898 988.271C662.72 982.43 703.122 1057.23 763.045 1079.96C825.436 1103.61 896.698 1063.99 934.626 1009.08C956.039 978.073 970.356 937.888 956.578 902.815C941.956 865.601 900.304 844.934 883.733 808.55C868.047 774.111 878.626 732.605 899.268 700.889C919.911 669.172 949.436 644.501 975.867 617.418C1018.18 574.061 1053.19 523.6 1079.01 468.792C1096.76 431.108 1108.16 381.157 1078.51 351.9C1056.24 329.929 1020.94 330.398 989.723 332.306C952.981 334.553 916.244 336.794 879.501 339.041C836.655 341.658 786.777 341.37 759.797 307.971C728.235 268.897 748.154 211.545 767.062 165.007C785.969 118.469 799.32 56.9866 760.84 24.7051C744.948 11.3757 723.54 6.82884 702.906 4.74342C548.187 -10.8995 410.588 81.0095 264.948 115.57C136.286 146.103 33.724 108.256 9.5586 269.442C-4.86761 365.614 2.24291 429.378 113.468 416.716Z" fill="#25A0AF"/>
</svg>
