<svg width="1158" height="926" viewBox="0 0 1158 926" fill="none" xmlns="http://www.w3.org/2000/svg">
<path opacity="0.9" d="M125.802 429.092C146.447 431.222 167.355 430.337 187.526 426.523C209.631 422.321 230.269 411.509 252.768 409.246C291.336 405.384 326.048 432.97 357.027 453.935C389.264 475.749 423.723 496.024 462.829 492.545C485.089 490.576 505.377 485.04 527.885 491.551C547.839 497.305 565.802 508.609 582.893 520.676C618.272 545.661 651.969 576.646 693.826 588.93C732.316 600.227 775.082 594.642 807.838 573.072C824.263 562.246 839.382 544.172 860.465 543.351C878.241 542.665 894.519 554.193 908.513 564.637C925.939 577.675 942.393 592.463 961.819 602.285C982.204 612.589 1004.23 615.363 1025.83 610.237C1076.37 598.234 1106.49 553.511 1132.77 511.692C1140 500.196 1121.84 488.327 1114.62 499.823C1091.54 536.564 1065.3 578.432 1020.64 589.042C980.03 598.694 950.511 569.853 919.304 546.53C904.809 535.688 888.962 525.622 871.221 522.633C852.731 519.52 836.058 525.57 821.305 535.935C804.394 547.791 789.582 560.847 769.51 567.268C751.14 573.15 731.255 574.623 711.882 571.264C631.238 557.26 580.641 460.5 494.45 466.615C473.659 468.093 453.82 474.312 432.716 469.21C414.63 464.813 398.089 455.528 382.288 445.422C350.852 425.299 320.256 399.243 283.745 390.451C261.641 385.126 241.099 387.983 220.103 394.68C197.296 401.96 175.063 408.22 150.727 408.583C103.762 409.297 57.3473 393.585 19.0644 363.946C7.98649 355.35 -2.75592 373.527 8.24664 382.042C42.6238 408.657 83.6994 424.756 125.802 429.092Z" fill="#269EAE"/>
<path opacity="0.9" d="M514.676 329.313C536.239 328.722 557.72 331.33 578.187 339.66C598.273 347.833 616.41 360.843 634.065 373.604C667.557 397.841 703.554 426.479 745.843 426.967C791.446 427.49 825.145 390.571 869.668 388.925C883.109 388.437 883.461 366.834 869.858 367.341C830.164 368.797 800.32 395.683 762.741 403.629C721.858 412.284 685.392 384.975 653.118 361.489C617.416 335.528 581.982 312.277 537.859 308.355C495.522 304.608 454.104 315.41 413.274 323.319C364.136 332.834 307.236 337.715 264.197 303.104C253.309 294.358 242.568 312.497 253.369 321.188C331.971 384.411 429.671 331.627 514.676 329.313Z" fill="#269EAE"/>
</svg>
