<svg width="1134" height="1094" viewBox="0 0 1134 1094" fill="none" xmlns="http://www.w3.org/2000/svg">
<path opacity="0.6" d="M718.098 110.071C724.552 164.881 712.733 227.802 667.206 259.009C628.699 285.399 577.836 281.779 531.383 277.105C431.372 267.047 331.356 256.985 231.345 246.927C189.503 242.721 146.819 238.554 105.75 247.587C64.6818 256.62 24.7414 281.252 8.22732 319.916C-18.5884 382.7 24.4458 453.763 75.3529 499.263C106.632 527.224 144.449 555.959 148.435 597.721C154.524 661.519 79.8805 702.212 57.3903 762.223C33.974 824.706 73.8749 895.813 128.935 933.527C160.022 954.819 200.263 968.979 235.282 955.065C272.438 940.299 292.943 898.567 329.262 881.855C363.641 866.035 405.187 876.452 436.983 896.971C468.78 917.49 493.566 946.919 520.751 973.245C564.273 1015.39 614.87 1050.2 669.777 1075.81C707.53 1093.41 757.526 1104.61 786.667 1074.85C808.551 1052.5 807.945 1017.2 805.915 985.992C803.526 949.258 801.141 912.53 798.752 875.797C795.969 832.961 796.062 783.082 829.356 755.973C868.306 724.258 925.736 743.955 972.347 762.681C1018.96 781.407 1080.49 794.518 1112.62 755.914C1125.89 739.97 1130.35 718.545 1132.36 697.903C1147.4 543.123 1054.96 405.883 1019.83 260.378C988.797 131.837 1026.24 29.1281 864.966 5.58982C768.739 -8.46222 705.003 -1.10374 718.098 110.071Z" fill="#E8A5AE"/>
</svg>
