<svg width="1248" height="1202" viewBox="0 0 1248 1202" fill="none" xmlns="http://www.w3.org/2000/svg">
<path opacity="0.4" d="M1165.07 548.729L1164.07 547.61C1191.97 522.696 1217.66 490.816 1232.71 456.636C1247.76 422.465 1252.11 386.115 1237.57 352.086C1219.65 310.16 1176.2 283.29 1131.3 273.42C1086.37 263.546 1039.64 268.092 993.548 272.721C938.569 278.246 883.586 283.773 828.602 289.299C773.516 294.836 718.43 300.373 663.348 305.909C612.323 311.039 555.773 315.133 512.873 285.753L513.721 284.516L512.873 285.753C462.074 250.958 449.097 181.021 456.223 120.549C459.811 90.1045 458.114 66.9282 452.014 49.5152C445.932 32.1541 435.456 20.463 421.31 12.9562C407.113 5.42267 389.13 2.05754 368.003 1.56438C346.885 1.07143 322.742 3.44925 296.296 7.30829L296.08 5.82401L296.296 7.30831C252.073 13.7579 221.64 25.6084 200.28 41.8408C178.948 58.0528 166.542 78.7309 158.536 103.088C150.514 127.494 146.93 155.523 143.215 186.423C143.05 187.792 142.885 189.166 142.72 190.545C139.155 220.268 135.288 252.505 127.105 286.374C113.697 341.874 92.6923 396.339 71.6952 450.785C62.3859 474.924 53.0781 499.059 44.4344 523.279C16.2579 602.231 -4.94592 682.262 3.29785 767.033C5.49902 789.675 10.381 812.846 24.6777 830.014C41.9564 850.759 67.1938 857.703 94.6917 856.839C122.203 855.975 151.77 847.292 177.345 837.024C202.995 826.727 231.775 816.096 259.552 812.439C287.348 808.78 314.342 812.079 336.216 829.876C354.91 845.086 364.214 866.637 368.475 890.173C372.733 913.694 371.98 939.341 370.447 962.91C369.127 983.18 367.813 1003.39 366.499 1023.6C365.189 1043.74 363.879 1063.89 362.564 1084.09C361.447 1101.25 360.734 1119.4 363.273 1136.29C365.809 1153.17 371.575 1168.68 383.321 1180.67C398.951 1196.62 420.232 1201.67 442.924 1200.28C465.628 1198.89 489.58 1191.04 510.257 1181.41C570.533 1153.32 626.078 1115.13 673.855 1068.9C681.474 1061.53 688.944 1053.91 696.432 1046.27C718.199 1024.06 740.114 1001.71 766.274 984.838C801.493 962.127 847.779 950.415 886.264 968.112C905.842 977.114 921.271 992.608 936.442 1007.84C936.984 1008.39 937.526 1008.93 938.068 1009.47C953.847 1025.3 969.506 1040.6 989.619 1048.59C1027.46 1063.62 1071.19 1048.38 1105.26 1025.06C1135.35 1004.47 1161.29 974.754 1176.5 941.694C1191.7 908.641 1196.15 872.335 1183.44 838.439C1177.32 822.136 1167.64 807.099 1156.61 792.578C1149.72 783.521 1142.36 774.734 1135.03 765.971C1130.57 760.645 1126.11 755.327 1121.78 749.964C1098.98 721.749 1079.74 692.596 1083.15 656.863C1085.38 633.464 1097.1 613.796 1112.46 596.19C1124.62 582.262 1139.15 569.52 1153.19 557.211C1156.87 553.986 1160.51 550.79 1164.07 547.61L1165.07 548.729Z" stroke="#336F55" stroke-width="3"/>
<path opacity="0.4" d="M1091.89 556.917L1092.89 558.035L1091.89 556.917C1114.78 536.457 1135.86 510.282 1148.2 482.231C1160.53 454.189 1164.09 424.389 1152.18 396.507C1137.51 362.15 1101.92 340.103 1065.09 332.002C1028.24 323.896 989.902 327.627 952.042 331.433C906.694 335.993 861.388 340.551 816.083 345.108C771.017 349.642 725.951 354.175 680.844 358.711C638.954 362.927 592.406 366.312 557.078 342.099C515.232 313.413 504.579 255.796 510.436 206.056C513.381 181.053 511.984 162.048 506.992 147.788C502.019 133.579 493.459 124.023 481.902 117.885C470.294 111.72 455.571 108.958 438.24 108.553C420.918 108.148 401.106 110.1 379.391 113.271L379.174 111.787L379.391 113.271C343.096 118.569 318.15 128.298 300.656 141.604C283.188 154.889 273.025 171.835 266.463 191.818C259.884 211.849 256.943 234.861 253.89 260.265C253.755 261.39 253.62 262.52 253.484 263.654C250.556 288.083 247.378 314.596 240.654 342.451C229.637 388.087 212.376 432.883 195.127 477.644C187.483 497.481 179.841 517.312 172.747 537.206C149.609 602.091 132.21 667.828 138.975 737.447C140.782 756.048 144.787 775.025 156.475 789.071C170.594 806.036 191.227 811.732 213.763 811.023C236.314 810.315 260.564 803.19 281.555 794.756C302.623 786.291 326.288 777.541 349.139 774.53C372.008 771.517 394.265 774.228 412.308 788.921C427.729 801.477 435.392 819.26 438.897 838.642C442.401 858.01 441.78 879.118 440.521 898.494C439.455 914.885 438.389 931.278 437.324 947.671C436.232 964.483 435.139 981.294 434.046 998.103C433.129 1012.2 432.546 1027.09 434.626 1040.95C436.704 1054.79 441.424 1067.48 451.019 1077.28C463.784 1090.32 481.174 1094.46 499.764 1093.32C518.365 1092.18 538.003 1085.74 554.968 1077.83C604.446 1054.76 650.041 1023.38 689.26 985.406C695.506 979.357 701.635 973.1 707.78 966.825C725.663 948.568 743.693 930.16 765.206 916.276C794.172 897.583 832.288 887.91 864.013 902.51C880.138 909.93 892.841 922.697 905.291 935.208C905.74 935.66 906.19 936.112 906.639 936.563C919.604 949.58 932.428 962.115 948.888 968.656C979.84 980.956 1015.66 968.491 1043.61 949.343C1068.29 932.441 1089.56 908.054 1102.03 880.927C1114.5 853.806 1118.13 824.039 1107.72 796.26C1102.71 782.894 1094.78 770.558 1085.72 758.632C1080.07 751.191 1074.04 743.978 1068.01 736.779C1064.35 732.401 1060.69 728.027 1057.13 723.61C1038.4 700.417 1022.53 676.379 1025.34 646.892C1027.18 627.582 1036.84 611.364 1049.48 596.871C1059.47 585.408 1071.43 574.919 1082.96 564.801C1085.98 562.151 1088.97 559.527 1091.89 556.917Z" stroke="#336F55" stroke-width="3"/>
<path opacity="0.5" d="M560.076 271.454C555.295 312.122 564.05 358.81 597.774 381.965C626.297 401.547 663.973 398.86 698.383 395.392C772.465 387.93 846.551 380.463 920.633 373.001C951.627 369.88 983.245 366.788 1013.67 373.49C1044.09 380.193 1073.67 398.469 1085.91 427.158C1105.77 473.743 1073.89 526.471 1036.18 560.232C1013.01 580.979 985.001 602.3 982.048 633.288C977.538 680.625 1032.83 710.82 1049.49 755.347C1066.83 801.709 1037.28 854.47 996.493 882.454C973.465 898.252 943.657 908.759 917.717 898.435C890.194 887.479 875.005 856.513 848.102 844.113C822.637 832.375 791.862 840.104 768.309 855.329C744.756 870.554 726.396 892.39 706.258 911.924C674.02 943.193 636.541 969.027 595.869 988.024C567.904 1001.09 530.87 1009.4 509.284 987.318C493.073 970.734 493.522 944.541 495.026 921.382C496.796 894.126 498.562 866.874 500.332 839.618C502.394 807.834 502.324 770.824 477.662 750.709C448.81 727.178 406.269 741.792 371.743 755.687C337.216 769.582 291.635 779.31 267.834 750.666C258.007 738.836 254.7 722.938 253.215 707.622C242.073 592.776 310.55 490.945 336.57 382.981C359.557 287.604 331.819 211.395 451.284 193.93C522.564 183.503 569.776 188.963 560.076 271.454Z" fill="#346E55"/>
</svg>
