<svg width="1022" height="1709" viewBox="0 0 1022 1709" fill="none" xmlns="http://www.w3.org/2000/svg">
<path opacity="0.6" d="M65.3727 695.972C1.97518 632.439 -17.9273 529.434 17.2413 446.865C54.2954 359.873 141.007 304.475 191.06 224.253C229.346 162.892 245.155 88.5605 289.692 31.5707C305.465 11.3833 331.764 -7.54234 354.821 3.60767C368.437 10.1877 375.516 25.0421 383.042 38.1581C411.513 87.805 460.422 125.312 515.758 139.924C560.243 151.675 607.054 148.991 652.999 151.543C725.339 155.563 799.726 174.32 854.57 221.656C909.413 268.993 939.469 349.654 912.443 416.87C886.173 482.207 810.979 534.048 824.698 603.119C833.332 646.589 874.626 674.098 909.237 701.775C953.649 737.286 992.669 781.629 1012.49 834.929C1024.65 867.638 1027.98 907.881 1005.29 934.399C973.002 972.133 911.013 958.9 868.838 932.683C753.458 860.971 694.117 725.953 593.299 634.904C561.219 605.929 509.207 582.198 478.139 612.259C459.953 629.857 458.632 658.957 465.037 683.436C481.785 747.49 538.499 791.444 579.595 843.351C620.691 895.257 644.225 977.716 595.925 1023C570.345 1046.98 529.821 1054.27 511.759 1084.32C496.618 1109.51 502.934 1141.75 511.899 1169.73C556.678 1309.61 656.74 1437.65 648.818 1584.31C647.138 1615.36 639.772 1647.55 619.32 1670.96C588.508 1706.21 535.631 1713.02 489.399 1705.61C354.227 1683.96 246.769 1550.14 254.824 1413.48C257.348 1370.63 269.709 1327.39 260.693 1285.41C237.885 1179.22 90.0802 1124.59 91.0633 1015.99C91.4887 968.986 121.61 927.181 128.528 880.688C143.288 781.497 53.1363 699.281 26.7048 602.54" fill="#F1CE2C"/>
</svg>
