<svg width="520" height="537" viewBox="0 0 520 537" fill="none" xmlns="http://www.w3.org/2000/svg">
<path opacity="0.6" d="M451.218 3.69706C482.453 19.4319 481.952 88.9865 491.695 143.931C501.316 198.875 521.304 239.209 519.933 279.421C518.557 319.504 495.945 359.465 469.585 404.293C443.347 449.121 413.365 498.697 369.011 522.049C324.657 545.273 265.936 542.027 231.581 508.19C197.227 474.353 186.977 409.911 152.996 367.701C119.014 325.619 61.1678 305.763 28.9355 265.179C-3.17397 224.722 -9.79731 163.536 15.3154 120.329C40.4281 77.1215 97.2719 51.8986 148.996 45.529C200.72 39.1595 247.319 51.7709 302.168 38.909C357.017 26.1747 419.983 -11.915 451.218 3.69706Z" fill="#25A0AF"/>
</svg>
