<svg width="455" height="489" viewBox="0 0 455 489" fill="none" xmlns="http://www.w3.org/2000/svg">
<path opacity="0.7" d="M452.266 193.82C463.17 223.19 420.38 268.543 393.238 310.551C366.012 352.48 354.518 391.144 329.067 416.703C303.695 442.179 264.455 454.619 219.776 467.975C175.181 481.406 125.23 495.664 81.8544 483.954C38.5538 472.16 1.98259 434.227 0.0800426 391.065C-1.82251 347.904 30.7895 299.365 34.2422 250.94C37.6201 202.599 11.7596 154.298 15.3709 108.007C18.9866 61.8753 51.9905 17.6709 94.8551 4.62302C137.72 -8.42927 190.441 9.67055 228.289 37.0249C266.137 64.3793 289.043 101.067 332.907 126.063C376.692 151.142 441.286 164.529 452.266 193.82Z" fill="#F4C366"/>
</svg>
