<svg width="84" height="47" viewBox="0 0 84 47" fill="none" xmlns="http://www.w3.org/2000/svg">
<path d="M13.104 4.468L10.374 12H8.274L6.58 7.324L4.83 12H2.73L0.014 4.468H2.072L3.85 9.564L5.698 4.468H7.546L9.338 9.564L11.172 4.468H13.104ZM16.964 12.112C16.3386 12.112 15.7273 12.0373 15.13 11.888C14.5326 11.7293 14.0566 11.5333 13.702 11.3L14.43 9.732C14.766 9.94667 15.172 10.124 15.648 10.264C16.124 10.3947 16.5906 10.46 17.048 10.46C17.972 10.46 18.434 10.2313 18.434 9.774C18.434 9.55933 18.308 9.40533 18.056 9.312C17.804 9.21867 17.4166 9.13933 16.894 9.074C16.278 8.98067 15.7693 8.87333 15.368 8.752C14.9666 8.63067 14.6166 8.416 14.318 8.108C14.0286 7.8 13.884 7.36133 13.884 6.792C13.884 6.316 14.0193 5.896 14.29 5.532C14.57 5.15867 14.9713 4.86933 15.494 4.664C16.026 4.45867 16.6513 4.356 17.37 4.356C17.902 4.356 18.4293 4.41667 18.952 4.538C19.484 4.65 19.9226 4.80867 20.268 5.014L19.54 6.568C18.8773 6.19467 18.154 6.008 17.37 6.008C16.9033 6.008 16.5533 6.07333 16.32 6.204C16.0866 6.33467 15.97 6.50267 15.97 6.708C15.97 6.94133 16.096 7.10467 16.348 7.198C16.6 7.29133 17.0013 7.38 17.552 7.464C18.168 7.56667 18.672 7.67867 19.064 7.8C19.456 7.912 19.7966 8.122 20.086 8.43C20.3753 8.738 20.52 9.16733 20.52 9.718C20.52 10.1847 20.38 10.6 20.1 10.964C19.82 11.328 19.4093 11.6127 18.868 11.818C18.336 12.014 17.7013 12.112 16.964 12.112ZM28.4895 10.32V12H21.7695V10.684L25.6055 6.148H21.8675V4.468H28.3635V5.784L24.5275 10.32H28.4895ZM37.6483 4.468L34.2463 12.462C33.901 13.33 33.4716 13.9413 32.9583 14.296C32.4543 14.6507 31.843 14.828 31.1243 14.828C30.7323 14.828 30.345 14.7673 29.9623 14.646C29.5796 14.5247 29.267 14.3567 29.0243 14.142L29.8223 12.588C29.9903 12.7373 30.1816 12.854 30.3963 12.938C30.6203 13.022 30.8396 13.064 31.0543 13.064C31.353 13.064 31.5956 12.9893 31.7823 12.84C31.969 12.7 32.137 12.462 32.2863 12.126L32.3143 12.056L29.0523 4.468H31.3063L33.4203 9.578L35.5483 4.468H37.6483ZM41.3841 12.112C40.7588 12.112 40.1474 12.0373 39.5501 11.888C38.9528 11.7293 38.4768 11.5333 38.1221 11.3L38.8501 9.732C39.1861 9.94667 39.5921 10.124 40.0681 10.264C40.5441 10.3947 41.0108 10.46 41.4681 10.46C42.3921 10.46 42.8541 10.2313 42.8541 9.774C42.8541 9.55933 42.7281 9.40533 42.4761 9.312C42.2241 9.21867 41.8368 9.13933 41.3141 9.074C40.6981 8.98067 40.1894 8.87333 39.7881 8.752C39.3868 8.63067 39.0368 8.416 38.7381 8.108C38.4488 7.8 38.3041 7.36133 38.3041 6.792C38.3041 6.316 38.4394 5.896 38.7101 5.532C38.9901 5.15867 39.3914 4.86933 39.9141 4.664C40.4461 4.45867 41.0714 4.356 41.7901 4.356C42.3221 4.356 42.8494 4.41667 43.3721 4.538C43.9041 4.65 44.3428 4.80867 44.6881 5.014L43.9601 6.568C43.2974 6.19467 42.5741 6.008 41.7901 6.008C41.3234 6.008 40.9734 6.07333 40.7401 6.204C40.5068 6.33467 40.3901 6.50267 40.3901 6.708C40.3901 6.94133 40.5161 7.10467 40.7681 7.198C41.0201 7.29133 41.4214 7.38 41.9721 7.464C42.5881 7.56667 43.0921 7.67867 43.4841 7.8C43.8761 7.912 44.2168 8.122 44.5061 8.43C44.7954 8.738 44.9401 9.16733 44.9401 9.718C44.9401 10.1847 44.8001 10.6 44.5201 10.964C44.2401 11.328 43.8294 11.6127 43.2881 11.818C42.7561 12.014 42.1214 12.112 41.3841 12.112ZM51.5656 11.636C51.3509 11.7947 51.0849 11.916 50.7676 12C50.4596 12.0747 50.1329 12.112 49.7876 12.112C48.8916 12.112 48.1963 11.8833 47.7016 11.426C47.2163 10.9687 46.9736 10.2967 46.9736 9.41V6.316H45.8116V4.636H46.9736V2.802H49.1576V4.636H51.0336V6.316H49.1576V9.382C49.1576 9.69933 49.2369 9.94667 49.3956 10.124C49.5636 10.292 49.7969 10.376 50.0956 10.376C50.4409 10.376 50.7349 10.2827 50.9776 10.096L51.5656 11.636ZM56.4456 9.046L55.3956 10.082V12H53.2116V1.612H55.3956V7.492L58.5876 4.468H61.1916L58.0556 7.66L61.4716 12H58.8256L56.4456 9.046ZM62.8191 4.468H65.0031V12H62.8191V4.468ZM63.9111 3.418C63.5098 3.418 63.1831 3.30133 62.9311 3.068C62.6791 2.83467 62.5531 2.54533 62.5531 2.2C62.5531 1.85467 62.6791 1.56533 62.9311 1.332C63.1831 1.09867 63.5098 0.981999 63.9111 0.981999C64.3124 0.981999 64.6391 1.094 64.8911 1.318C65.1431 1.542 65.2691 1.822 65.2691 2.158C65.2691 2.522 65.1431 2.82533 64.8911 3.068C64.6391 3.30133 64.3124 3.418 63.9111 3.418ZM74.828 8.262C74.828 8.29 74.814 8.486 74.786 8.85H69.088C69.1907 9.31667 69.4334 9.68533 69.816 9.956C70.1987 10.2267 70.6747 10.362 71.244 10.362C71.636 10.362 71.9814 10.306 72.28 10.194C72.588 10.0727 72.8727 9.886 73.134 9.634L74.296 10.894C73.5867 11.706 72.5507 12.112 71.188 12.112C70.3387 12.112 69.5874 11.9487 68.934 11.622C68.2807 11.286 67.7767 10.824 67.422 10.236C67.0674 9.648 66.89 8.98067 66.89 8.234C66.89 7.49667 67.0627 6.834 67.408 6.246C67.7627 5.64867 68.2434 5.18667 68.85 4.86C69.466 4.524 70.152 4.356 70.908 4.356C71.6454 4.356 72.3127 4.51467 72.91 4.832C73.5074 5.14933 73.974 5.60667 74.31 6.204C74.6554 6.792 74.828 7.478 74.828 8.262ZM70.922 6.008C70.4274 6.008 70.012 6.148 69.676 6.428C69.34 6.708 69.1347 7.09067 69.06 7.576H72.77C72.6954 7.1 72.49 6.722 72.154 6.442C71.818 6.15267 71.4074 6.008 70.922 6.008ZM8.386 25.262C8.386 25.29 8.372 25.486 8.344 25.85H2.646C2.74867 26.3167 2.99133 26.6853 3.374 26.956C3.75667 27.2267 4.23267 27.362 4.802 27.362C5.194 27.362 5.53933 27.306 5.838 27.194C6.146 27.0727 6.43067 26.886 6.692 26.634L7.854 27.894C7.14467 28.706 6.10867 29.112 4.746 29.112C3.89667 29.112 3.14533 28.9487 2.492 28.622C1.83867 28.286 1.33467 27.824 0.98 27.236C0.625333 26.648 0.448 25.9807 0.448 25.234C0.448 24.4967 0.620667 23.834 0.966 23.246C1.32067 22.6487 1.80133 22.1867 2.408 21.86C3.024 21.524 3.71 21.356 4.466 21.356C5.20333 21.356 5.87067 21.5147 6.468 21.832C7.06533 22.1493 7.532 22.6067 7.868 23.204C8.21333 23.792 8.386 24.478 8.386 25.262ZM4.48 23.008C3.98533 23.008 3.57 23.148 3.234 23.428C2.898 23.708 2.69267 24.0907 2.618 24.576H6.328C6.25333 24.1 6.048 23.722 5.712 23.442C5.376 23.1527 4.96533 23.008 4.48 23.008ZM19.906 21.356C20.8487 21.356 21.5954 21.636 22.146 22.196C22.706 22.7467 22.986 23.5773 22.986 24.688V29H20.802V25.024C20.802 24.4267 20.676 23.9833 20.424 23.694C20.1814 23.3953 19.8314 23.246 19.374 23.246C18.8607 23.246 18.4547 23.414 18.156 23.75C17.8574 24.0767 17.708 24.5667 17.708 25.22V29H15.524V25.024C15.524 23.8387 15.048 23.246 14.096 23.246C13.592 23.246 13.1907 23.414 12.892 23.75C12.5934 24.0767 12.444 24.5667 12.444 25.22V29H10.26V21.468H12.346V22.336C12.626 22.0187 12.9667 21.776 13.368 21.608C13.7787 21.44 14.2267 21.356 14.712 21.356C15.244 21.356 15.7247 21.4633 16.154 21.678C16.5834 21.8833 16.9287 22.1867 17.19 22.588C17.498 22.196 17.8854 21.8927 18.352 21.678C18.828 21.4633 19.346 21.356 19.906 21.356ZM29.0297 29.112C28.2363 29.112 27.5223 28.9487 26.8877 28.622C26.2623 28.286 25.7723 27.824 25.4177 27.236C25.063 26.648 24.8857 25.9807 24.8857 25.234C24.8857 24.4873 25.063 23.82 25.4177 23.232C25.7723 22.644 26.2623 22.1867 26.8877 21.86C27.5223 21.524 28.2363 21.356 29.0297 21.356C29.823 21.356 30.5323 21.524 31.1577 21.86C31.783 22.1867 32.273 22.644 32.6277 23.232C32.9823 23.82 33.1597 24.4873 33.1597 25.234C33.1597 25.9807 32.9823 26.648 32.6277 27.236C32.273 27.824 31.783 28.286 31.1577 28.622C30.5323 28.9487 29.823 29.112 29.0297 29.112ZM29.0297 27.32C29.5897 27.32 30.047 27.1333 30.4017 26.76C30.7657 26.3773 30.9477 25.8687 30.9477 25.234C30.9477 24.5993 30.7657 24.0953 30.4017 23.722C30.047 23.3393 29.5897 23.148 29.0297 23.148C28.4697 23.148 28.0077 23.3393 27.6437 23.722C27.2797 24.0953 27.0977 24.5993 27.0977 25.234C27.0977 25.8687 27.2797 26.3773 27.6437 26.76C28.0077 27.1333 28.4697 27.32 29.0297 27.32ZM38.6795 29.112C37.8768 29.112 37.1535 28.9487 36.5095 28.622C35.8748 28.286 35.3755 27.824 35.0115 27.236C34.6568 26.648 34.4795 25.9807 34.4795 25.234C34.4795 24.4873 34.6568 23.82 35.0115 23.232C35.3755 22.644 35.8748 22.1867 36.5095 21.86C37.1535 21.524 37.8768 21.356 38.6795 21.356C39.4728 21.356 40.1635 21.524 40.7515 21.86C41.3488 22.1867 41.7828 22.658 42.0535 23.274L40.3595 24.184C39.9675 23.4933 39.4028 23.148 38.6655 23.148C38.0961 23.148 37.6248 23.3347 37.2515 23.708C36.8781 24.0813 36.6915 24.59 36.6915 25.234C36.6915 25.878 36.8781 26.3867 37.2515 26.76C37.6248 27.1333 38.0961 27.32 38.6655 27.32C39.4121 27.32 39.9768 26.9747 40.3595 26.284L42.0535 27.208C41.7828 27.8053 41.3488 28.272 40.7515 28.608C40.1635 28.944 39.4728 29.112 38.6795 29.112ZM43.171 31.828C42.4056 31.828 41.8223 31.688 41.421 31.408L42.009 29.826C42.261 30.0033 42.569 30.092 42.933 30.092C43.213 30.092 43.4323 29.9987 43.591 29.812C43.7496 29.6347 43.829 29.364 43.829 29V21.468H46.013V28.986C46.013 29.8633 45.761 30.554 45.257 31.058C44.7623 31.5713 44.067 31.828 43.171 31.828ZM44.921 20.418C44.5196 20.418 44.193 20.3013 43.941 20.068C43.689 19.8347 43.563 19.5453 43.563 19.2C43.563 18.8547 43.689 18.5653 43.941 18.332C44.193 18.0987 44.5196 17.982 44.921 17.982C45.3223 17.982 45.649 18.094 45.901 18.318C46.153 18.542 46.279 18.822 46.279 19.158C46.279 19.522 46.153 19.8253 45.901 20.068C45.649 20.3013 45.3223 20.418 44.921 20.418ZM55.8219 25.262C55.8219 25.29 55.8079 25.486 55.7799 25.85H50.0819C50.1846 26.3167 50.4273 26.6853 50.8099 26.956C51.1926 27.2267 51.6686 27.362 52.2379 27.362C52.6299 27.362 52.9753 27.306 53.2739 27.194C53.5819 27.0727 53.8666 26.886 54.1279 26.634L55.2899 27.894C54.5806 28.706 53.5446 29.112 52.1819 29.112C51.3326 29.112 50.5813 28.9487 49.9279 28.622C49.2746 28.286 48.7706 27.824 48.4159 27.236C48.0613 26.648 47.8839 25.9807 47.8839 25.234C47.8839 24.4967 48.0566 23.834 48.4019 23.246C48.7566 22.6487 49.2373 22.1867 49.8439 21.86C50.4599 21.524 51.1459 21.356 51.9019 21.356C52.6393 21.356 53.3066 21.5147 53.9039 21.832C54.5013 22.1493 54.9679 22.6067 55.3039 23.204C55.6493 23.792 55.8219 24.478 55.8219 25.262ZM51.9159 23.008C51.4213 23.008 51.0059 23.148 50.6699 23.428C50.3339 23.708 50.1286 24.0907 50.0539 24.576H53.7639C53.6893 24.1 53.4839 23.722 53.1479 23.442C52.8119 23.1527 52.4013 23.008 51.9159 23.008ZM8.68 35.612V46H6.594V45.132C6.05267 45.7853 5.26867 46.112 4.242 46.112C3.53267 46.112 2.88867 45.9533 2.31 45.636C1.74067 45.3187 1.29267 44.866 0.966 44.278C0.639333 43.69 0.476 43.0087 0.476 42.234C0.476 41.4593 0.639333 40.778 0.966 40.19C1.29267 39.602 1.74067 39.1493 2.31 38.832C2.88867 38.5147 3.53267 38.356 4.242 38.356C5.20333 38.356 5.95467 38.6593 6.496 39.266V35.612H8.68ZM4.62 44.32C5.17067 44.32 5.628 44.1333 5.992 43.76C6.356 43.3773 6.538 42.8687 6.538 42.234C6.538 41.5993 6.356 41.0953 5.992 40.722C5.628 40.3393 5.17067 40.148 4.62 40.148C4.06 40.148 3.598 40.3393 3.234 40.722C2.87 41.0953 2.688 41.5993 2.688 42.234C2.688 42.8687 2.87 43.3773 3.234 43.76C3.598 44.1333 4.06 44.32 4.62 44.32ZM14.7054 46.112C13.912 46.112 13.198 45.9487 12.5634 45.622C11.938 45.286 11.448 44.824 11.0934 44.236C10.7387 43.648 10.5614 42.9807 10.5614 42.234C10.5614 41.4873 10.7387 40.82 11.0934 40.232C11.448 39.644 11.938 39.1867 12.5634 38.86C13.198 38.524 13.912 38.356 14.7054 38.356C15.4987 38.356 16.208 38.524 16.8334 38.86C17.4587 39.1867 17.9487 39.644 18.3034 40.232C18.658 40.82 18.8354 41.4873 18.8354 42.234C18.8354 42.9807 18.658 43.648 18.3034 44.236C17.9487 44.824 17.4587 45.286 16.8334 45.622C16.208 45.9487 15.4987 46.112 14.7054 46.112ZM14.7054 44.32C15.2654 44.32 15.7227 44.1333 16.0774 43.76C16.4414 43.3773 16.6234 42.8687 16.6234 42.234C16.6234 41.5993 16.4414 41.0953 16.0774 40.722C15.7227 40.3393 15.2654 40.148 14.7054 40.148C14.1454 40.148 13.6834 40.3393 13.3194 40.722C12.9554 41.0953 12.7734 41.5993 12.7734 42.234C12.7734 42.8687 12.9554 43.3773 13.3194 43.76C13.6834 44.1333 14.1454 44.32 14.7054 44.32ZM26.8215 44.32V46H20.1015V44.684L23.9375 40.148H20.1995V38.468H26.6955V39.784L22.8595 44.32H26.8215ZM40.6003 38.468L37.8703 46H35.7703L34.0763 41.324L32.3263 46H30.2263L27.5103 38.468H29.5683L31.3463 43.564L33.1943 38.468H35.0423L36.8343 43.564L38.6683 38.468H40.6003ZM45.4146 46.112C44.6212 46.112 43.9072 45.9487 43.2726 45.622C42.6472 45.286 42.1572 44.824 41.8026 44.236C41.4479 43.648 41.2706 42.9807 41.2706 42.234C41.2706 41.4873 41.4479 40.82 41.8026 40.232C42.1572 39.644 42.6472 39.1867 43.2726 38.86C43.9072 38.524 44.6212 38.356 45.4146 38.356C46.2079 38.356 46.9172 38.524 47.5426 38.86C48.1679 39.1867 48.6579 39.644 49.0126 40.232C49.3672 40.82 49.5446 41.4873 49.5446 42.234C49.5446 42.9807 49.3672 43.648 49.0126 44.236C48.6579 44.824 48.1679 45.286 47.5426 45.622C46.9172 45.9487 46.2079 46.112 45.4146 46.112ZM45.4146 44.32C45.9746 44.32 46.4319 44.1333 46.7866 43.76C47.1506 43.3773 47.3326 42.8687 47.3326 42.234C47.3326 41.5993 47.1506 41.0953 46.7866 40.722C46.4319 40.3393 45.9746 40.148 45.4146 40.148C44.8546 40.148 44.3926 40.3393 44.0286 40.722C43.6646 41.0953 43.4826 41.5993 43.4826 42.234C43.4826 42.8687 43.6646 43.3773 44.0286 43.76C44.3926 44.1333 44.8546 44.32 45.4146 44.32ZM51.4244 35.612H53.6084V46H51.4244V35.612ZM59.6393 46.112C58.846 46.112 58.132 45.9487 57.4973 45.622C56.872 45.286 56.382 44.824 56.0273 44.236C55.6727 43.648 55.4953 42.9807 55.4953 42.234C55.4953 41.4873 55.6727 40.82 56.0273 40.232C56.382 39.644 56.872 39.1867 57.4973 38.86C58.132 38.524 58.846 38.356 59.6393 38.356C60.4327 38.356 61.142 38.524 61.7673 38.86C62.3927 39.1867 62.8827 39.644 63.2373 40.232C63.592 40.82 63.7693 41.4873 63.7693 42.234C63.7693 42.9807 63.592 43.648 63.2373 44.236C62.8827 44.824 62.3927 45.286 61.7673 45.622C61.142 45.9487 60.4327 46.112 59.6393 46.112ZM59.6393 44.32C60.1993 44.32 60.6567 44.1333 61.0113 43.76C61.3753 43.3773 61.5573 42.8687 61.5573 42.234C61.5573 41.5993 61.3753 41.0953 61.0113 40.722C60.6567 40.3393 60.1993 40.148 59.6393 40.148C59.0793 40.148 58.6173 40.3393 58.2533 40.722C57.8893 41.0953 57.7073 41.5993 57.7073 42.234C57.7073 42.8687 57.8893 43.3773 58.2533 43.76C58.6173 44.1333 59.0793 44.32 59.6393 44.32ZM70.2272 38.356C71.1605 38.356 71.9118 38.636 72.4812 39.196C73.0598 39.756 73.3492 40.5867 73.3492 41.688V46H71.1652V42.024C71.1652 41.4267 71.0345 40.9833 70.7732 40.694C70.5118 40.3953 70.1338 40.246 69.6392 40.246C69.0885 40.246 68.6498 40.4187 68.3232 40.764C67.9965 41.1 67.8332 41.604 67.8332 42.276V46H65.6492V38.468H67.7352V39.35C68.0245 39.0327 68.3838 38.79 68.8132 38.622C69.2425 38.4447 69.7138 38.356 70.2272 38.356ZM83.2089 42.262C83.2089 42.29 83.1949 42.486 83.1669 42.85H77.4689C77.5716 43.3167 77.8142 43.6853 78.1969 43.956C78.5796 44.2267 79.0556 44.362 79.6249 44.362C80.0169 44.362 80.3622 44.306 80.6609 44.194C80.9689 44.0727 81.2536 43.886 81.5149 43.634L82.6769 44.894C81.9676 45.706 80.9316 46.112 79.5689 46.112C78.7196 46.112 77.9682 45.9487 77.3149 45.622C76.6616 45.286 76.1576 44.824 75.8029 44.236C75.4482 43.648 75.2709 42.9807 75.2709 42.234C75.2709 41.4967 75.4436 40.834 75.7889 40.246C76.1436 39.6487 76.6242 39.1867 77.2309 38.86C77.8469 38.524 78.5329 38.356 79.2889 38.356C80.0262 38.356 80.6936 38.5147 81.2909 38.832C81.8882 39.1493 82.3549 39.6067 82.6909 40.204C83.0362 40.792 83.2089 41.478 83.2089 42.262ZM79.3029 40.008C78.8082 40.008 78.3929 40.148 78.0569 40.428C77.7209 40.708 77.5156 41.0907 77.4409 41.576H81.1509C81.0762 41.1 80.8709 40.722 80.5349 40.442C80.1989 40.1527 79.7882 40.008 79.3029 40.008Z" fill="#073150"/>
</svg>
